<svg width="16" height="16" viewBox="0 0 16 16" fill="none" xmlns="http://www.w3.org/2000/svg">
<g id="ic:baseline-discord">
<path id="Vector" d="M12.8469 3.5532C11.9602 3.13987 11.0002 2.83987 10.0002 2.66653C9.99147 2.66625 9.98275 2.6679 9.97469 2.67136C9.96663 2.67481 9.95942 2.67999 9.95357 2.68653C9.83357 2.90653 9.69357 3.1932 9.60024 3.4132C8.53957 3.2532 7.46091 3.2532 6.40024 3.4132C6.30691 3.18653 6.16691 2.90653 6.04024 2.68653C6.03357 2.6732 6.01357 2.66653 5.99357 2.66653C4.99357 2.83987 4.04024 3.13987 3.14691 3.5532C3.14024 3.5532 3.13357 3.55987 3.12691 3.56653C1.31357 6.27987 0.813574 8.91987 1.06024 11.5332C1.06024 11.5465 1.06691 11.5599 1.08024 11.5665C2.28024 12.4465 3.43357 12.9799 4.57357 13.3332C4.59357 13.3399 4.61357 13.3332 4.62024 13.3199C4.88691 12.9532 5.12691 12.5665 5.33357 12.1599C5.34691 12.1332 5.33357 12.1065 5.30691 12.0999C4.92691 11.9532 4.56691 11.7799 4.21357 11.5799C4.18691 11.5665 4.18691 11.5265 4.20691 11.5065C4.28024 11.4532 4.35357 11.3932 4.42691 11.3399C4.44024 11.3265 4.46024 11.3265 4.47357 11.3332C6.76691 12.3799 9.24024 12.3799 11.5069 11.3332C11.5202 11.3265 11.5402 11.3265 11.5536 11.3399C11.6269 11.3999 11.7002 11.4532 11.7736 11.5132C11.8002 11.5332 11.8002 11.5732 11.7669 11.5865C11.4202 11.7932 11.0536 11.9599 10.6736 12.1065C10.6469 12.1132 10.6402 12.1465 10.6469 12.1665C10.8602 12.5732 11.1002 12.9599 11.3602 13.3265C11.3802 13.3332 11.4002 13.3399 11.4202 13.3332C12.5669 12.9799 13.7202 12.4465 14.9202 11.5665C14.9336 11.5599 14.9402 11.5465 14.9402 11.5332C15.2336 8.5132 14.4536 5.8932 12.8736 3.56653C12.8669 3.55987 12.8602 3.5532 12.8469 3.5532ZM5.68024 9.93987C4.99357 9.93987 4.42024 9.30653 4.42024 8.52653C4.42024 7.74653 4.98024 7.1132 5.68024 7.1132C6.38691 7.1132 6.94691 7.7532 6.94024 8.52653C6.94024 9.30653 6.38024 9.93987 5.68024 9.93987ZM10.3269 9.93987C9.64024 9.93987 9.06691 9.30653 9.06691 8.52653C9.06691 7.74653 9.62691 7.1132 10.3269 7.1132C11.0336 7.1132 11.5936 7.7532 11.5869 8.52653C11.5869 9.30653 11.0336 9.93987 10.3269 9.93987Z" fill="#5865F2"/>
</g>
</svg>
