<svg width="16" height="16" viewBox="0 0 16 16" fill="none" xmlns="http://www.w3.org/2000/svg">
<g id="mdi:github">
<path id="Vector" d="M8.00016 1.3335C7.12468 1.3335 6.25778 1.50593 5.44894 1.84097C4.6401 2.176 3.90517 2.66706 3.28612 3.28612C2.03587 4.53636 1.3335 6.23205 1.3335 8.00016C1.3335 10.9468 3.24683 13.4468 5.8935 14.3335C6.22683 14.3868 6.3335 14.1802 6.3335 14.0002V12.8735C4.48683 13.2735 4.0935 11.9802 4.0935 11.9802C3.78683 11.2068 3.3535 11.0002 3.3535 11.0002C2.74683 10.5868 3.40016 10.6002 3.40016 10.6002C4.06683 10.6468 4.42016 11.2868 4.42016 11.2868C5.00016 12.3002 5.98016 12.0002 6.36016 11.8402C6.42016 11.4068 6.5935 11.1135 6.78016 10.9468C5.30016 10.7802 3.74683 10.2068 3.74683 7.66683C3.74683 6.92683 4.00016 6.3335 4.4335 5.86016C4.36683 5.6935 4.1335 5.00016 4.50016 4.10016C4.50016 4.10016 5.06016 3.92016 6.3335 4.78016C6.86016 4.6335 7.4335 4.56016 8.00016 4.56016C8.56683 4.56016 9.14016 4.6335 9.66683 4.78016C10.9402 3.92016 11.5002 4.10016 11.5002 4.10016C11.8668 5.00016 11.6335 5.6935 11.5668 5.86016C12.0002 6.3335 12.2535 6.92683 12.2535 7.66683C12.2535 10.2135 10.6935 10.7735 9.20683 10.9402C9.44683 11.1468 9.66683 11.5535 9.66683 12.1735V14.0002C9.66683 14.1802 9.7735 14.3935 10.1135 14.3335C12.7602 13.4402 14.6668 10.9468 14.6668 8.00016C14.6668 7.12468 14.4944 6.25778 14.1594 5.44894C13.8243 4.6401 13.3333 3.90517 12.7142 3.28612C12.0951 2.66706 11.3602 2.176 10.5514 1.84097C9.74255 1.50593 8.87564 1.3335 8.00016 1.3335Z" fill="#171515"/>
</g>
</svg>
